<svg width="335" height="148" viewBox="0 0 335 148" fill="none" xmlns="http://www.w3.org/2000/svg">
<path d="M335 185.643L-25.0287 187.959C-25.1756 187.831 -26.325 19.6398 -26.325 19.6398C-17.534 22.2966 -7.12122 26.712 -0.256329 32.7773C3.61698 36.1952 9.39548 37.1927 14.4024 35.297C19.4042 33.406 22.6476 20.2354 22.6109 15.3662C22.5899 12.5865 22.5689 18.5005 22.5479 15.6546C22.5007 9.36714 26.6784 3.67061 33.1444 1.22654C39.6051 -1.22225 47.0736 0.0636009 52.0701 4.479C71.3999 21.5686 96.4032 43.6739 115.271 60.3617C119.9 64.4462 126.807 65.6375 132.79 63.3683C138.768 61.1039 142.641 55.8375 142.594 50.0181C142.547 44.1987 146.415 38.9323 152.393 36.6679C158.376 34.4035 165.283 35.5901 169.912 39.6793L335 185.643Z" fill="url(#paint0_linear_98_354)"/>
<rect x="198.409" y="199.503" width="40.7528" height="174.039" rx="20.3764" transform="rotate(131.58 198.409 199.503)" fill="url(#paint1_linear_98_354)"/>
<ellipse cx="260.575" cy="160.524" rx="47.5735" ry="47.8654" transform="rotate(-180 260.575 160.524)" fill="url(#paint2_linear_98_354)"/>
<circle cx="-8.52178" cy="107.697" r="29.4781" transform="rotate(-180 -8.52178 107.697)" fill="url(#paint3_linear_98_354)"/>
<rect x="197.428" y="166.195" width="36.6213" height="98.8572" rx="18.3107" transform="rotate(131.58 197.428 166.195)" fill="url(#paint4_linear_98_354)"/>
<defs>
<linearGradient id="paint0_linear_98_354" x1="-9.60895" y1="12.5737" x2="136.16" y2="188.071" gradientUnits="userSpaceOnUse">
<stop stop-color="#FFCD00"/>
<stop offset="1" stop-color="#E73585"/>
</linearGradient>
<linearGradient id="paint1_linear_98_354" x1="213.052" y1="118.743" x2="221.259" y2="373.463" gradientUnits="userSpaceOnUse">
<stop offset="0.390625" stop-color="#FFCD00"/>
<stop offset="1" stop-color="#E73585"/>
</linearGradient>
<linearGradient id="paint2_linear_98_354" x1="222.097" y1="190.44" x2="331.681" y2="113.291" gradientUnits="userSpaceOnUse">
<stop stop-color="#E73585"/>
<stop offset="1" stop-color="#FFCD00"/>
</linearGradient>
<linearGradient id="paint3_linear_98_354" x1="11.5982" y1="78.2191" x2="-27.7059" y2="137.175" gradientUnits="userSpaceOnUse">
<stop stop-color="#E73585"/>
<stop offset="1" stop-color="#E52513"/>
</linearGradient>
<linearGradient id="paint4_linear_98_354" x1="213.062" y1="191.353" x2="214.76" y2="331.691" gradientUnits="userSpaceOnUse">
<stop stop-color="#E73585"/>
<stop offset="1" stop-color="#FFCD00"/>
</linearGradient>
</defs>
</svg>
