<svg width="130" height="68" viewBox="0 0 130 68" fill="none" xmlns="http://www.w3.org/2000/svg">
<g clip-path="url(#clip0_98_65)">
<path d="M97.2923 53.4852V28.5763H104.203V53.4852H108.953V1.50702H104.203V24.4735H97.2923V1.50702H92.542V53.4852H97.2923Z" fill="#F29400"/>
<path d="M26.9604 53.4852V5.61554H34.3752V1.50702H22.2043V53.4852H26.9604Z" fill="#F29400"/>
<path d="M79.1277 29.5389L87.4765 30.8626C87.5854 29.9916 87.6599 29.1035 87.6828 28.221H79.2251C79.2079 28.6794 79.1735 29.1149 79.1277 29.5389ZM78.5661 32.4613L86.6055 35.0685C86.8519 34.2262 87.0582 33.361 87.2244 32.4957L78.8813 31.172C78.7896 31.5903 78.6865 32.0144 78.5661 32.4613ZM77.5405 35.2576L85.0699 39.0968C85.4481 38.3004 85.7861 37.4809 86.0841 36.6501L78.0447 34.0371C77.8843 34.4497 77.7181 34.8623 77.5405 35.2576ZM76.1136 37.8649L82.9268 42.8157C83.431 42.0823 83.8952 41.3259 84.3135 40.5638L76.7955 36.736C76.5721 37.1429 76.3428 37.5153 76.1136 37.8649ZM74.2628 40.197L80.2336 46.1679C80.8353 45.5318 81.4083 44.8556 81.9527 44.1566L75.1223 39.1943C74.8587 39.5266 74.5722 39.859 74.2628 40.197ZM72.0911 42.2312L77.0534 49.0616C77.7639 48.5058 78.4401 47.9327 79.0647 47.3425L73.0938 41.3717C72.7615 41.6754 72.4234 41.9676 72.0911 42.2312ZM69.6271 43.9044L73.4548 51.4224C74.217 51.0041 74.9733 50.5342 75.7068 50.0357L70.7559 43.2168C70.4121 43.446 70.0397 43.6752 69.6271 43.9044ZM66.9282 45.1479L69.5411 53.1873C70.372 52.8893 71.1972 52.5455 71.9879 52.1731L68.1487 44.6379C67.7533 44.8213 67.3408 44.9932 66.9282 45.1479ZM65.3524 45.6693C64.8997 45.7954 64.4757 45.8985 64.0689 45.9788L65.3868 54.3219C66.2406 54.1614 67.1058 53.9494 67.9654 53.703L65.3524 45.6693ZM52.4252 44.6436L48.5917 52.1731C49.3825 52.5455 50.2019 52.8836 51.0385 53.1873L53.6514 45.1479C53.2274 44.9932 52.8206 44.8213 52.4252 44.6436ZM49.818 43.2168L44.8671 50.0357C45.6006 50.54 46.3569 51.0041 47.1248 51.4224L50.9525 43.9044C50.5342 43.6752 50.1618 43.446 49.818 43.2168ZM47.4858 41.3717L41.5092 47.3368C42.1453 47.9327 42.8157 48.5115 43.5205 49.0558L48.4828 42.2255C48.1562 41.9676 47.8181 41.6754 47.4858 41.3717ZM45.4516 39.1943L38.6212 44.1566C39.1713 44.8614 39.7443 45.5318 40.3403 46.1679L46.3111 40.197C46.0074 39.8704 45.7209 39.5323 45.4516 39.1943ZM43.7726 36.736L36.2547 40.5638C36.6844 41.3373 37.1486 42.0937 37.6471 42.8157L44.466 37.8649C44.2425 37.5268 44.0133 37.1543 43.7726 36.736ZM42.5292 34.0314L34.4898 36.6443C34.7878 37.4752 35.1258 38.3004 35.504 39.0911L43.0392 35.2519C42.8558 34.8623 42.6896 34.4497 42.5292 34.0314ZM41.6983 31.1778L33.3552 32.5014C33.5157 33.361 33.722 34.2262 33.9741 35.0743L42.0135 32.4671C41.8874 32.0086 41.7843 31.5846 41.6983 31.1778ZM41.3488 28.221H32.8911C32.9197 29.1035 32.9885 29.9916 33.0974 30.8626L41.4462 29.5389C41.4004 29.1149 41.3717 28.6794 41.3488 28.221ZM41.4462 25.2471L33.0974 23.9234C32.9828 24.7944 32.9197 25.6826 32.8911 26.565H41.3488C41.3717 26.1066 41.4004 25.6711 41.4462 25.2471ZM42.0135 22.3247L33.9741 19.7117C33.722 20.5655 33.5157 21.4308 33.3552 22.2903L41.6983 23.6082C41.7843 23.1957 41.8874 22.7774 42.0135 22.3247ZM43.0392 19.5284L35.504 15.6892C35.1258 16.4857 34.7878 17.3051 34.4898 18.1359L42.5292 20.7489C42.6896 20.3306 42.8616 19.9237 43.0392 19.5284ZM44.466 16.9211L37.6471 11.9703C37.1486 12.6923 36.6844 13.4487 36.2547 14.2222L43.7726 18.05C44.0133 17.6317 44.2425 17.2592 44.466 16.9211ZM46.3111 14.589L40.3403 8.61815C39.7443 9.2542 39.1656 9.93036 38.6212 10.6294L45.4516 15.5917C45.7266 15.2479 46.0131 14.9099 46.3111 14.589ZM48.4828 12.5548L43.5262 5.72442C42.8329 6.26306 42.1567 6.8418 41.515 7.4492L47.4858 13.42C47.8239 13.1049 48.1562 12.8241 48.4828 12.5548ZM50.9468 10.8816L47.1191 3.3636C46.3569 3.7819 45.6006 4.25177 44.8614 4.75603L49.8122 11.5749C50.1618 11.34 50.5342 11.1108 50.9468 10.8816ZM53.6457 9.63812L51.0327 1.59298C50.1961 1.89668 49.3767 2.23476 48.5917 2.60722L52.4252 10.1366C52.8206 9.96474 53.2274 9.79283 53.6457 9.63812ZM55.2215 9.11667C55.6856 8.99061 56.1097 8.88747 56.505 8.80725L55.1814 0.464142C54.3219 0.624587 53.4566 0.836602 52.6085 1.083L55.2215 9.11667ZM55.1814 54.3219L56.505 45.9788C56.1039 45.8985 55.6799 45.7954 55.2215 45.6693L52.6085 53.703C53.4623 53.9551 54.3276 54.1614 55.1814 54.3219ZM58.1439 8.55512C58.5622 8.50928 58.9977 8.4749 59.4618 8.45771V0C58.5794 0.0229206 57.6969 0.0974126 56.8202 0.206286L58.1439 8.55512ZM56.8202 54.5797C57.6969 54.6886 58.5794 54.7574 59.4618 54.786V46.3283C58.9977 46.3111 58.5622 46.2767 58.1439 46.2309L56.8202 54.5797ZM62.4358 8.55512L63.7594 0.206286C62.8827 0.0916825 61.9945 0.0229206 61.1178 0V8.45771C61.5762 8.4749 62.0117 8.50928 62.4358 8.55512ZM61.1121 54.786C61.9945 54.7574 62.8827 54.6886 63.7537 54.5797L62.43 46.2309C62.0117 46.2767 61.5762 46.3111 61.1121 46.3283V54.786ZM65.3524 9.11667L67.9654 1.083C67.1116 0.830872 66.2463 0.624587 65.3868 0.464142L64.0689 8.80725C64.4757 8.88747 64.8997 8.99061 65.3524 9.11667ZM68.1487 10.1424L71.9879 2.60722C71.1914 2.23476 70.372 1.89095 69.5411 1.59298L66.9282 9.63239C67.3408 9.79283 67.7533 9.95901 68.1487 10.1424ZM70.7617 11.5692L75.7125 4.7503C74.9791 4.24604 74.2227 3.7819 73.4606 3.35787L69.6328 10.8758C70.0397 11.1108 70.4121 11.34 70.7617 11.5692ZM73.0938 13.4143L79.0647 7.4492C78.4229 6.84753 77.7467 6.26879 77.0534 5.72442L72.0911 12.5548C72.4234 12.8184 72.7558 13.1049 73.0938 13.4143ZM75.1223 15.5917L81.9527 10.6294C81.4083 9.92463 80.8296 9.2542 80.2336 8.61815L74.2628 14.589C74.5665 14.9156 74.8587 15.2537 75.1223 15.5917ZM76.8013 18.05L84.3192 14.2222C83.8952 13.4601 83.431 12.7038 82.9325 11.9703L76.1194 16.9211C76.3428 17.2707 76.572 17.6431 76.8013 18.05ZM78.0447 20.7546L86.0841 18.1417C85.7861 17.3108 85.4423 16.4857 85.0699 15.6949L77.5405 19.5341C77.7181 19.9237 77.8843 20.3306 78.0447 20.7546ZM78.8756 23.6082L87.2187 22.2903C87.0525 21.425 86.8462 20.5598 86.5998 19.7117L78.5604 22.3247C78.6865 22.7716 78.7896 23.1957 78.8756 23.6082ZM79.2251 26.565H87.6828C87.6599 25.6826 87.5854 24.7944 87.4765 23.9234L79.1277 25.2471C79.1735 25.6711 79.2079 26.1066 79.2251 26.565Z" fill="#E53517"/>
<path d="M4.80761 45.4172V10.0049C4.80761 6.54957 6.00521 4.8248 8.40615 4.8248C10.7097 4.8248 11.8614 6.64699 11.8614 10.2971V44.9817C11.8614 48.2937 10.6123 49.9498 8.11964 49.9498C5.9078 49.9498 4.80761 48.437 4.80761 45.4172ZM14.3082 52.0012C15.8439 50.7291 16.6117 48.8496 16.6117 46.3512V9.8616C16.6117 3.95954 13.8498 1.00851 8.33165 1.00851C5.45512 1.00851 3.35215 1.71905 2.03421 3.1344C0.71628 4.54975 0.057312 6.7444 0.057312 9.71835V45.4172C0.057312 48.1046 0.779311 50.1904 2.21758 51.6803C3.65585 53.1701 5.69578 53.9093 8.33738 53.9093C10.7784 53.9093 12.7725 53.2732 14.3082 52.0012Z" fill="#F29400"/>
<path d="M119.273 28.221H121.577C122.774 28.221 123.685 28.4502 124.31 28.9029C124.935 29.3613 125.244 30.2094 125.244 31.4585V46.1449C125.244 47.3941 124.929 48.2479 124.31 48.7006C123.685 49.159 122.774 49.3825 121.577 49.3825H119.273V28.221ZM122.081 53.4853C125.106 53.4853 127.181 52.9122 128.31 51.7605C129.438 50.6087 130 48.5459 130 45.5662V32.0373C130 29.0633 129.433 26.9948 128.31 25.843C127.181 24.6912 125.106 24.1182 122.081 24.1182H119.273V1.51276H114.523V53.491H122.081V53.4853Z" fill="#F29400"/>
<path d="M126.803 64.0058H127.828C128.092 64.0058 128.292 64.0803 128.441 64.2293C128.59 64.3783 128.659 64.5846 128.659 64.8539C128.659 65.1175 128.59 65.3123 128.447 65.4498C128.304 65.5816 128.109 65.6504 127.857 65.6504H126.797V64.0058H126.803ZM126.803 60.8141H125.559V66.6073H127.588C128.109 66.6073 128.499 66.5729 128.751 66.5042C129.14 66.3953 129.438 66.2005 129.645 65.9197C129.851 65.6389 129.954 65.2779 129.954 64.8539C129.954 64.1491 129.714 63.6391 129.226 63.3297C128.934 63.1406 128.504 63.0489 127.949 63.0489H126.803V60.8141ZM120.797 66.6073V64.0803H123.003V66.6073H124.247V60.8141H123.003V63.1234H120.797V60.8141H119.554V66.6073H120.797ZM118.448 66.6073V65.6446H115.72V64.0803H118.19V63.1348H115.72V61.7653H118.362V60.8199H114.477V66.613H118.448V66.6073ZM109.721 65.6446C109.95 65.2378 110.122 64.7278 110.231 64.109C110.34 63.4901 110.397 62.8942 110.397 62.3154V61.7539H111.692V65.6446H109.721ZM113.503 65.6446H112.936V60.8141H109.154V61.5304C109.154 61.9602 109.148 62.3154 109.137 62.5962C109.125 62.8827 109.091 63.2093 109.039 63.5933C108.988 63.9714 108.907 64.3324 108.787 64.6705C108.672 65.0086 108.523 65.3352 108.334 65.6504H107.927V67.8278H109.171V66.6188H112.259V67.8278H113.503V65.6446ZM103.355 62.4931H103.378V66.6073H104.564V60.8141H103.223L101.08 64.9169H101.057V60.8141H99.8708V66.6073H101.195L103.355 62.4931ZM102.868 59.0664C102.81 59.4504 102.598 59.6452 102.243 59.6452C101.876 59.6452 101.659 59.4504 101.601 59.0664H101.046C101.068 59.4446 101.177 59.7426 101.384 59.9431C101.584 60.1494 101.871 60.2526 102.243 60.2526C102.61 60.2526 102.891 60.1494 103.091 59.9374C103.292 59.7311 103.401 59.4389 103.424 59.0607H102.868V59.0664ZM93.625 64.0058H94.6507C94.9143 64.0058 95.1148 64.0803 95.2638 64.2293C95.4128 64.3783 95.4816 64.5846 95.4816 64.8539C95.4816 65.1175 95.4128 65.3123 95.2695 65.4498C95.1263 65.5816 94.9315 65.6504 94.6793 65.6504H93.6193V64.0058H93.625ZM93.625 60.8141H92.3815V66.6073H94.41C94.9315 66.6073 95.3211 66.5729 95.5732 66.5042C95.9629 66.3953 96.2609 66.2005 96.4671 65.9197C96.6734 65.6389 96.7766 65.2779 96.7766 64.8539C96.7766 64.1491 96.5302 63.6391 96.0431 63.3297C95.7509 63.1406 95.3268 63.0489 94.7653 63.0489H93.6193V60.8141H93.625ZM97.3095 66.6073H98.5529V60.8141H97.3095V66.6073ZM87.6656 65.6446C87.8948 65.2378 88.0667 64.7278 88.1756 64.109C88.2845 63.4901 88.3418 62.8942 88.3418 62.3154V61.7539H89.6368V65.6446H87.6656ZM91.4418 65.6446H90.8745V60.8141H87.0926V61.5304C87.0926 61.9602 87.0869 62.3154 87.0697 62.5962C87.0582 62.8827 87.0238 63.2093 86.9723 63.5933C86.9207 63.9714 86.8405 64.3324 86.7259 64.6705C86.6113 65.0086 86.4623 65.3352 86.2732 65.6504H85.8664V67.8278H87.1098V66.6188H90.1984V67.8278H91.4418V65.6446ZM82.8867 63.4042L85.0126 60.8141H83.5743L81.649 63.3182H81.6318V60.8141H80.4284V63.3182H80.4112L78.4859 60.8141H77.0477L79.1735 63.4042L76.8643 66.6073H78.4L80.4112 63.6563H80.4284V66.6073H81.6318V63.6563H81.649L83.6602 66.6073H85.1959L82.8867 63.4042ZM72.5495 64.4184L73.409 61.9544L74.2112 64.4184H72.5495ZM70.607 66.6073H71.7931L72.2286 65.3581H74.5264L74.9447 66.6073H76.1996L74.1826 60.8141H72.7042L70.607 66.6073ZM66.4239 66.6073V63.662L68.4524 66.6073H69.9996L67.6903 63.4156L69.8162 60.8141H68.3607L66.4182 63.3239V60.8141H65.1748V66.6073H66.4239ZM58.1095 64.4184L58.969 61.9544L59.7712 64.4184H58.1095ZM56.167 66.6073H57.3531L57.7886 65.3581H60.0864L60.5047 66.6073H61.7539L59.7426 60.8141H58.2642L56.167 66.6073ZM51.8407 66.6073V64.0803H54.0468V66.6073H55.2903V60.8141H54.0468V63.1234H51.8407V60.8141H50.5973V66.6073H51.8407ZM43.5091 64.4184L44.3686 61.9544L45.1708 64.4184H43.5091ZM41.5665 66.6073H42.7527L43.1882 65.3581H45.486L45.9043 66.6073H47.1592L45.1422 60.8141H43.6638L41.5665 66.6073ZM37.3893 66.6073V63.662L39.4177 66.6073H40.9649L38.6556 63.4156L40.7815 60.8141H39.326L37.3835 63.3239V60.8141H36.1401V66.6073H37.3893ZM34.4841 61.2611C34.083 60.8829 33.5615 60.6938 32.9255 60.6938C32.0659 60.6938 31.407 60.9746 30.9543 61.5476C30.5016 62.1149 30.2724 62.877 30.2724 63.8339C30.2724 64.7507 30.5073 65.4613 30.9715 65.977C31.4356 66.4927 32.0831 66.7448 32.914 66.7448C33.8423 66.7448 34.4955 66.4068 34.8794 65.7363C34.9654 65.5873 35.0227 65.4441 35.0571 65.3123C35.0915 65.1805 35.1201 64.9857 35.1316 64.7336H33.8251C33.8136 65.0716 33.7162 65.3409 33.5271 65.5358C33.338 65.7363 33.0916 65.8337 32.7879 65.8337C32.3926 65.8337 32.0889 65.6618 31.8826 65.3238C31.6763 64.9857 31.5674 64.4929 31.5674 63.8454C31.5674 63.1578 31.682 62.6019 31.917 62.1894C32.1519 61.7768 32.4671 61.5705 32.8739 61.5705C33.1432 61.5705 33.3552 61.6737 33.5214 61.8742C33.6818 62.0748 33.785 62.3498 33.8136 62.6936H35.08C35.0857 62.1149 34.8852 61.6393 34.4841 61.2611ZM27.9861 62.4931H28.009V66.6073H29.1951V60.8141H27.8543L25.7112 64.9169H25.6883V60.8141H24.5021V66.6073H25.8258L27.9861 62.4931ZM19.7232 61.7596H21.9293V66.6073H23.1727V60.8141H18.4797V66.6073H19.7232V61.7596ZM13.7409 65.6446C13.9701 65.2378 14.142 64.7278 14.2509 64.109C14.3598 63.4901 14.4171 62.8942 14.4171 62.3154V61.7539H15.7064V65.6446H13.7409ZM17.5228 65.6446H16.9555V60.8141H13.1736V61.5304C13.1736 61.9602 13.1679 62.3154 13.1507 62.5962C13.1392 62.8827 13.1049 63.2093 13.0533 63.5933C13.0017 63.9714 12.9215 64.3324 12.8069 64.6705C12.6923 65.0086 12.5433 65.3352 12.3542 65.6504H11.9474V67.8278H13.1908V66.6188H16.2794V67.8278H17.5228V65.6446ZM7.16842 62.9457C7.21426 62.7108 7.28876 62.4873 7.3919 62.2696C7.49504 62.0518 7.64976 61.8857 7.85604 61.7596C8.06233 61.6393 8.30299 61.5762 8.59523 61.5762C8.87601 61.5762 9.11094 61.6393 9.3115 61.7596C9.51206 61.8857 9.66677 62.0461 9.76991 62.2581C9.87305 62.4644 9.94755 62.6822 9.99339 62.9056C10.0392 63.1291 10.0622 63.3755 10.0622 63.6334C10.0622 65.0946 9.56936 65.8223 8.58377 65.8223C7.59245 65.8223 7.09966 65.1117 7.09966 63.6964C7.09966 63.4328 7.12258 63.1807 7.16842 62.9457ZM6.53238 65.9655C7.01944 66.487 7.70133 66.7448 8.57231 66.7448C9.47767 66.7448 10.1653 66.4641 10.6466 65.8968C11.1222 65.3295 11.3629 64.5846 11.3629 63.6563C11.3629 62.7566 11.1222 62.0404 10.6409 61.5017C10.1596 60.9631 9.47194 60.6938 8.5895 60.6938C7.71279 60.6938 7.0309 60.9688 6.53811 61.5132C6.05104 62.0576 5.80465 62.8197 5.80465 63.7938C5.79892 64.7221 6.04531 65.4498 6.53238 65.9655ZM1.24344 61.7596H3.44955V66.6073H4.693V60.8141H0V66.6073H1.24344V61.7596Z" fill="#E53517"/>
</g>
<defs>
<clipPath id="clip0_98_65">
<rect width="130" height="67.8221" fill="white"/>
</clipPath>
</defs>
</svg>
