<svg width="40" height="40" viewBox="0 0 40 40" fill="none" xmlns="http://www.w3.org/2000/svg">
<path d="M0 12C0 5.37258 5.37258 0 12 0H28C34.6274 0 40 5.37258 40 12V28C40 34.6274 34.6274 40 28 40H12C5.37258 40 0 34.6274 0 28V12Z" fill="white"/>
<path d="M20.5199 29.7602C20.0557 30.3242 18.0473 32.5957 18.0473 32.5957H19.9863C21.7191 32.5957 23.0112 32.1414 24.0792 30.8384C24.5433 30.2725 26.5489 28.0001 26.5489 28.0001H24.6127C22.879 28.0001 21.5878 28.4553 20.5199 29.7602Z" fill="#009CDE"/>
<path d="M28.1627 26.4657C27.9321 26.7486 26.9288 27.883 26.9288 27.883H27.8964C28.7638 27.883 29.4089 27.6563 29.9433 27.0048C30.1749 26.7283 31.1791 25.5856 31.1791 25.5856H30.2105C29.3432 25.5856 28.6981 25.8142 28.1627 26.4657Z" fill="#009CDE"/>
<path d="M33.1501 19.1306C32.2827 19.1306 31.6376 19.3582 31.1023 20.0098C30.8716 20.2927 29.8683 21.4298 29.8683 21.4298H30.836C31.7033 21.4298 32.3484 21.2022 32.8828 20.5488C33.1135 20.2659 34.1177 19.1306 34.1177 19.1306H33.1501Z" fill="#0079C1"/>
<path d="M27.587 21.5261C25.8701 21.5261 24.5949 21.9748 23.5373 23.2659C23.2954 23.5617 22.0549 24.9762 22.0549 24.9762C21.6076 25.4609 21.0685 25.6342 20.3671 25.6342H18.9297C18.595 25.6342 18.2734 25.6452 17.9574 25.6673C17.9874 25.6314 18.0202 25.5945 18.0511 25.5558C18.4262 25.1025 19.5917 23.7663 20.3756 22.8761C20.7684 22.4503 21.2326 22.2762 21.8261 22.2485C22.9203 22.2485 23.7379 21.9555 24.4168 21.1298C24.7103 20.7695 25.9902 19.3218 25.9902 19.3218H24.7506C23.6489 19.3218 22.8256 19.6121 22.1458 20.4433C21.978 20.6479 21.4942 21.2017 21.106 21.6412C20.8303 21.9177 20.5003 22.0191 20.0746 22.0191H18.7112C16.5547 22.0191 14.9503 22.5849 13.6208 24.2077C13.0451 24.9099 10.549 27.7343 10.549 27.7343H13.0394C12.816 27.9534 12.6047 28.1841 12.4065 28.4254C11.6714 29.3267 8.47404 32.9409 8.47404 32.9409H11.5598C14.3193 32.9409 16.3765 32.2184 18.0783 30.1422C18.5528 29.5635 21.0516 26.7169 21.0516 26.7169C21.4595 26.2728 21.9433 26.0912 22.5603 26.0636H23.0094C24.7243 26.0636 26.0023 25.613 27.06 24.3219C27.5157 23.7635 29.5035 21.515 29.5035 21.515L27.587 21.5261Z" fill="#0071BB"/>
<path d="M9.16504 27.9501C8.29959 27.9501 7.65262 28.1777 7.11722 28.8311C6.8875 29.114 5.88329 30.2512 5.88329 30.2512H6.85187C7.71919 30.2512 8.36616 30.0217 8.89875 29.3711C9.13034 29.0836 10.1346 27.9501 10.1346 27.9501H9.16504Z" fill="#0071BB"/>
<path d="M12.8088 22.0359C11.9414 22.0359 11.2973 22.2626 10.7619 22.9168C10.5303 23.1988 9.52701 24.3351 9.52701 24.3351H10.4947C11.362 24.3351 12.0071 24.1065 12.5425 23.4559C12.7731 23.1721 13.7773 22.0359 13.7773 22.0359H12.8088Z" fill="#009CDE"/>
<path d="M10.8697 10.0905C10.8655 10.3772 10.8341 10.6628 10.776 10.9438C10.787 10.5367 10.7498 10.1297 10.6653 9.73108C10.5847 9.35141 10.3568 8.71741 10.1731 8.42345C9.95449 8.83637 9.79304 9.27613 9.69298 9.73108C9.61442 10.135 9.57673 10.5455 9.58047 10.9567C9.51344 10.5644 9.48612 10.1665 9.49889 9.76886C9.51862 9.40404 9.57771 9.04232 9.67517 8.68977C9.79779 8.2782 9.96601 7.88111 10.1768 7.50562C10.3943 7.87254 10.5659 8.26395 10.6878 8.67134C10.8146 9.13391 10.8758 9.61145 10.8697 10.0905ZM10.1824 12.5205C10.0145 12.2027 9.92612 11.8502 9.92458 11.4921C9.92557 11.1385 10.0144 10.7906 10.1834 10.4784C10.3384 10.7811 10.4235 11.1137 10.4328 11.4525C10.4433 11.8251 10.3572 12.1942 10.1824 12.5251V12.5205ZM10.925 8.67871C10.7375 7.84934 10.249 7.17019 10.1824 7.05869C9.88578 7.49644 9.65375 7.9733 9.49326 8.47505C9.29678 9.13681 9.23778 9.83066 9.3198 10.5153C9.38325 10.9636 9.50098 11.4029 9.67048 11.8238C9.80699 12.1428 9.979 12.446 10.1834 12.7278C10.3962 12.4588 10.881 11.6552 11.0272 10.6084C11.1107 10.0241 11.1154 9.51452 10.9204 8.68147L10.925 8.67871Z" fill="#0071BB"/>
<path d="M10.5097 12.9216H9.03946V13.8919V13.8873C9.1219 13.8061 9.21981 13.7416 9.32759 13.6976C9.43537 13.6536 9.55091 13.6309 9.66763 13.6308C9.78434 13.6306 9.89994 13.6531 10.0078 13.6969C10.1157 13.7407 10.2138 13.8049 10.2964 13.8859C10.379 13.9669 10.4446 14.0632 10.4894 14.1691C10.5341 14.275 10.5573 14.3886 10.5574 14.5033C10.5575 14.618 10.5347 14.7316 10.4901 14.8376C10.4456 14.9436 10.3802 15.04 10.2978 15.1212C10.2965 15.1213 10.2953 15.1218 10.2943 15.1227C10.2933 15.1235 10.2925 15.1246 10.2922 15.1258H10.2865C10.08 15.3277 9.82594 15.4765 9.54693 15.5589C9.26791 15.6413 8.97253 15.6549 8.68692 15.5984C8.40131 15.5418 8.13429 15.417 7.90949 15.2348C7.68469 15.0527 7.50905 14.8189 7.39813 14.5541C7.2872 14.2894 7.2444 14.0018 7.27352 13.7169C7.30264 13.432 7.40278 13.1586 7.56508 12.9208C7.72738 12.683 7.94682 12.4882 8.20399 12.3536C8.46116 12.2191 8.74812 12.1489 9.03946 12.1493V9.82342C8.51596 9.8231 8.00061 9.95081 7.53985 10.195C7.07908 10.4392 6.68739 10.7923 6.40006 11.2224C6.11274 11.6524 5.93881 12.146 5.89396 12.6586C5.8491 13.1712 5.93473 13.6867 6.14313 14.1587C6.35152 14.6307 6.67613 15.0443 7.08771 15.3622C7.49928 15.6802 7.98488 15.8925 8.50075 15.98C9.01662 16.0675 9.54654 16.0275 10.0428 15.8636C10.539 15.6997 10.9859 15.417 11.3433 15.041V12.9216H10.5097Z" fill="#0071BB"/>
<path d="M11.7446 12.9236H12.9495V13.3079H12.3756V16.0263H11.7446V12.9236Z" fill="#0071BB"/>
<path d="M12.9635 16.0254H13.5814L13.6405 15.2016H13.9387L13.9977 16.0254H14.6156L14.2865 12.9236H13.2908L12.9635 16.0254ZM13.6658 14.8597L13.7736 13.3079H13.8102L13.919 14.8597H13.6658Z" fill="#0071BB"/>
<path d="M15.5187 14.9392V15.5235C15.5175 15.537 15.5192 15.5505 15.5237 15.5633C15.5281 15.5761 15.5353 15.5878 15.5447 15.5977C15.554 15.6076 15.5654 15.6154 15.578 15.6208C15.5907 15.6261 15.6043 15.6287 15.6181 15.6285C15.6316 15.6283 15.6449 15.6254 15.6573 15.6201C15.6696 15.6148 15.6808 15.6071 15.6901 15.5975C15.6995 15.5879 15.7068 15.5766 15.7116 15.5642C15.7165 15.5518 15.7188 15.5386 15.7184 15.5253V14.7992C15.7184 14.707 15.6996 14.5946 15.4662 14.5946H15.2074V14.2573H15.4737C15.6546 14.2573 15.7184 14.2168 15.7184 14.0269V13.4095C15.7188 13.3963 15.7165 13.3831 15.7116 13.3708C15.7067 13.3585 15.6994 13.3472 15.6901 13.3377C15.6807 13.3282 15.6696 13.3206 15.6572 13.3153C15.6448 13.3101 15.6315 13.3074 15.6181 13.3072C15.6044 13.3064 15.5906 13.3084 15.5778 13.3133C15.5651 13.3182 15.5535 13.3258 15.544 13.3356C15.5346 13.3453 15.5274 13.357 15.523 13.3698C15.5186 13.3826 15.5171 13.3961 15.5187 13.4095V13.9154H14.8848V13.4768C14.8848 13.2593 14.9111 12.9239 15.3536 12.9239H15.8769C16.3194 12.9239 16.3457 13.2602 16.3457 13.4768V13.9698C16.3457 14.3062 16.1066 14.3983 15.9172 14.3909V14.4214C16.341 14.4121 16.3457 14.7319 16.3457 14.8425V15.4691C16.3457 15.6848 16.3194 16.022 15.8769 16.022H15.3536C14.9101 16.022 14.8848 15.6857 14.8848 15.4691V14.9392H15.5187Z" fill="#0071BB"/>
<path d="M16.7375 12.9236H18.1993V16.0263H17.5673V13.3079H17.3704L17.3685 16.0263H16.7375V12.9236Z" fill="#0071BB"/>
<path d="M18.5866 16.0248H19.2176V14.9706H19.5786C20.0212 14.9706 20.0474 14.6333 20.0474 14.4177V13.4768C20.0474 13.2593 20.0202 12.9239 19.5786 12.9239H18.5866V16.0248ZM19.2176 14.6287V13.3072H19.2992C19.3676 13.3072 19.4155 13.3635 19.4155 13.4621V14.4757C19.4155 14.5734 19.3676 14.6305 19.2992 14.6305L19.2176 14.6287Z" fill="#0071BB"/>
<path d="M20.3531 15.4728C20.3531 15.6884 20.3793 16.0257 20.8219 16.0257H21.3451C21.7867 16.0257 21.8139 15.6894 21.8139 15.4728V13.4768C21.8139 13.2593 21.7858 12.9239 21.3451 12.9239H20.8219C20.3793 12.9239 20.3531 13.2602 20.3531 13.4768V15.4728ZM21.1838 15.5235C21.1845 15.5369 21.1823 15.5503 21.1776 15.5629C21.1729 15.5755 21.1656 15.5871 21.1562 15.5969C21.1469 15.6066 21.1356 15.6145 21.1231 15.6199C21.1106 15.6254 21.0972 15.6283 21.0835 15.6285C21.0702 15.6286 21.057 15.6259 21.0448 15.6206C21.0326 15.6153 21.0217 15.6075 21.0129 15.5978C21.004 15.588 20.9974 15.5765 20.9934 15.564C20.9894 15.5515 20.9881 15.5383 20.9897 15.5253V13.4095C20.9883 13.3966 20.9896 13.3835 20.9937 13.3712C20.9977 13.3588 21.0044 13.3474 21.0133 13.3377C21.0221 13.3281 21.033 13.3203 21.0451 13.3151C21.0572 13.3098 21.0703 13.3072 21.0835 13.3072C21.097 13.3074 21.1103 13.3101 21.1226 13.3153C21.135 13.3206 21.1462 13.3282 21.1555 13.3377C21.1648 13.3472 21.1722 13.3585 21.177 13.3708C21.1819 13.3831 21.1842 13.3963 21.1838 13.4095V15.5235Z" fill="#0071BB"/>
<path d="M23.8177 12.9236H24.6381V16.0263H24.0061V14.0801H23.9846L23.6592 16.0263H23.1538L22.8303 14.0801H22.806V16.0263H22.1749V12.9236H22.9944L23.4061 15.1039L23.8177 12.9236Z" fill="#0071BB"/>
<path d="M25.1978 12.9203H25.8289V14.2252H26.0267V12.9203H26.6596V16.0249H26.0267V14.5671H25.8289V16.0249H25.1978V12.9203Z" fill="#009CDE"/>
<path d="M27.0292 12.9203H28.3109V13.2631H27.6611V14.2252H28.2556V14.5671H27.6611V15.6839H28.3372V16.0249H27.0292V12.9203Z" fill="#009CDE"/>
<path d="M30.0999 15.4729C30.1675 15.4729 30.2181 15.4139 30.2181 15.3162V13.6188C30.2181 13.5211 30.1675 13.4631 30.0999 13.4631H30.0062V15.4729H30.0999ZM29.3798 13.4631H29.2861C29.1679 13.4631 29.1679 13.5875 29.1679 13.6188V15.3162C29.1679 15.3485 29.1679 15.4729 29.2861 15.4729H29.3798V13.4631ZM29.3798 15.8139H29.0188C28.5753 15.8139 28.55 15.4757 28.55 15.261V13.6769C28.55 13.4594 28.5753 13.124 29.0188 13.124H29.3798V12.9203H30.0099V13.1221H30.3709C30.8144 13.1221 30.8397 13.4594 30.8397 13.675V15.26C30.8397 15.4766 30.8126 15.8129 30.3709 15.8129H30.0099V16.0249H29.3798V15.8129V15.8139Z" fill="#009CDE"/>
<path d="M31.3516 13.2631H30.9738V12.9203H32.3633V13.2631H31.9845V16.0249H31.3516V13.2631Z" fill="#009CDE"/>
<path d="M33.3676 15.6834C33.4351 15.6834 33.4848 15.6262 33.4848 15.5286V14.5665C33.4848 14.4688 33.4351 14.4098 33.3676 14.4098H33.2879V15.6834H33.3676ZM32.655 12.9188H33.2879V14.0689H33.648C34.0896 14.0689 34.1168 14.4052 34.1168 14.6218V15.4687C34.1168 15.6861 34.0887 16.0216 33.648 16.0216H32.655V12.9197V12.9188Z" fill="#009CDE"/>
<path d="M22.731 11.9362C22.6569 11.9375 22.5833 11.924 22.5147 11.8966C22.4461 11.8692 22.3838 11.8284 22.3316 11.7768C22.1825 11.6302 22.1843 11.4644 22.1843 11.1769C22.1843 10.8894 22.1843 10.7235 22.3316 10.577C22.3838 10.5253 22.4461 10.4845 22.5147 10.4571C22.5833 10.4297 22.6569 10.4163 22.731 10.4175C22.864 10.4121 22.9941 10.4568 23.0948 10.5424C23.1955 10.628 23.2592 10.7481 23.2729 10.8783H23.0423C23.0314 10.8063 22.9941 10.7406 22.9375 10.6937C22.8809 10.6467 22.8088 10.6216 22.7347 10.623C22.6929 10.6222 22.6514 10.63 22.6128 10.6459C22.5742 10.6618 22.5394 10.6854 22.5106 10.7152C22.4356 10.7944 22.4169 10.8801 22.4169 11.1759C22.4169 11.4717 22.4338 11.5621 22.5106 11.6413C22.5394 11.6711 22.5742 11.6947 22.6128 11.7106C22.6514 11.7265 22.6929 11.7342 22.7347 11.7335C22.8081 11.7345 22.8794 11.7097 22.9358 11.6635C22.9922 11.6174 23.03 11.553 23.0423 11.4819H23.2748C23.2607 11.6119 23.1968 11.7317 23.0962 11.8172C22.9957 11.9028 22.8658 11.9476 22.7329 11.9426L22.731 11.9362Z" fill="#0071BB"/>
<path d="M23.8635 11.9229V10.43H24.8368V10.6337H24.0942V11.0696H24.7262V11.2705H24.0942V11.7202H24.8368V11.9229H23.8635Z" fill="#0071BB"/>
<path d="M25.949 10.6337V11.9229H25.7183V10.6337H25.3002V10.43H26.3672V10.6337H25.949Z" fill="#0071BB"/>
<path d="M27.4764 11.2207H27.1435V11.7192H27.4764C27.511 11.7213 27.5456 11.7164 27.5782 11.7048C27.6108 11.6932 27.6407 11.6752 27.6659 11.6518C27.6912 11.6285 27.7113 11.6003 27.725 11.569C27.7388 11.5378 27.7459 11.504 27.7459 11.47C27.7459 11.4359 27.7388 11.4022 27.725 11.3709C27.7113 11.3396 27.6912 11.3114 27.6659 11.2881C27.6407 11.2648 27.6108 11.2467 27.5782 11.2351C27.5456 11.2235 27.511 11.2186 27.4764 11.2207ZM27.4961 11.9229H26.9128V10.43H27.1435V11.0207H27.4961C27.5583 11.018 27.6205 11.0276 27.6789 11.0492C27.7372 11.0707 27.7906 11.1036 27.8356 11.1459C27.8807 11.1882 27.9165 11.2391 27.941 11.2954C27.9655 11.3518 27.9782 11.4124 27.9782 11.4737C27.9782 11.5349 27.9655 11.5955 27.941 11.6519C27.9165 11.7082 27.8807 11.7591 27.8356 11.8014C27.7906 11.8437 27.7372 11.8766 27.6789 11.8982C27.6205 11.9197 27.5583 11.9293 27.4961 11.9266V11.9229Z" fill="#0071BB"/>
<path d="M29.4651 10.7673L29.2307 11.4299H29.6995L29.466 10.7673H29.4651ZM29.8664 11.9229L29.7595 11.6234H29.1603L29.0534 11.9229H28.8097L29.3722 10.43H29.5598L30.1139 11.9229H29.8664Z" fill="#0071BB"/>
<path d="M30.5706 11.4819H30.8003C30.812 11.5542 30.8498 11.6198 30.9069 11.6669C30.9639 11.7139 31.0362 11.7392 31.1107 11.7381C31.2813 11.7381 31.3985 11.6459 31.3985 11.4948C31.3985 11.3437 31.3047 11.2552 31.1294 11.2552H30.9353V11.0654H31.1341C31.1659 11.0692 31.1983 11.066 31.2287 11.056C31.2591 11.046 31.2869 11.0294 31.31 11.0075C31.333 10.9856 31.3509 10.9589 31.3621 10.9294C31.3734 10.8999 31.3778 10.8683 31.3751 10.8368C31.3751 10.694 31.2729 10.6148 31.1125 10.6148C31.0382 10.6142 30.9662 10.6399 30.9097 10.6873C30.8532 10.7347 30.816 10.8006 30.805 10.8728H30.5724C30.5875 10.7436 30.6518 10.6249 30.7523 10.5404C30.8529 10.456 30.9822 10.4121 31.1144 10.4176C31.3957 10.4176 31.6076 10.5751 31.6076 10.8221C31.6099 10.8913 31.5913 10.9595 31.5541 11.0183C31.5168 11.077 31.4627 11.1236 31.3985 11.152C31.4703 11.1782 31.5317 11.2263 31.5736 11.2894C31.6155 11.3524 31.6356 11.427 31.631 11.5022C31.631 11.7667 31.4069 11.9362 31.106 11.9362C30.9749 11.9407 30.8469 11.8964 30.7477 11.8122C30.6484 11.728 30.5851 11.61 30.5706 11.4819Z" fill="#0071BB"/>
<path d="M32.7469 11.9362C32.673 11.9374 32.5996 11.924 32.5311 11.8966C32.4626 11.8692 32.4004 11.8284 32.3484 11.7768C32.1984 11.6303 32.2012 11.4644 32.2012 11.1769C32.2012 10.8894 32.2012 10.7235 32.3484 10.577C32.4004 10.5253 32.4626 10.4846 32.5311 10.4572C32.5996 10.4298 32.673 10.4163 32.7469 10.4175C32.88 10.4121 33.0103 10.4568 33.1111 10.5424C33.212 10.6279 33.2759 10.7481 33.2898 10.8783H33.0545C33.0446 10.8226 33.0193 10.7707 32.9814 10.7282C32.9435 10.6856 32.8945 10.6541 32.8396 10.6371C32.7848 10.6201 32.7262 10.6182 32.6704 10.6317C32.6145 10.6451 32.5635 10.6734 32.5228 10.7133C32.4487 10.7926 32.4291 10.8783 32.4291 11.1741C32.4291 11.4699 32.4469 11.5602 32.5228 11.6395C32.5517 11.6692 32.5865 11.6927 32.6251 11.7086C32.6636 11.7245 32.7051 11.7323 32.7469 11.7316C32.8204 11.7333 32.892 11.7091 32.9488 11.6632C33.0056 11.6174 33.0438 11.553 33.0563 11.4819H33.2898C33.2756 11.612 33.2117 11.732 33.1109 11.8176C33.0101 11.9031 32.88 11.9478 32.7469 11.9426V11.9362Z" fill="#0071BB"/>
<path d="M12 1H28V-1H12V1ZM39 12V28H41V12H39ZM28 39H12V41H28V39ZM1 28V12H-1V28H1ZM12 39C5.92487 39 1 34.0751 1 28H-1C-1 35.1797 4.8203 41 12 41V39ZM39 28C39 34.0751 34.0751 39 28 39V41C35.1797 41 41 35.1797 41 28H39ZM28 1C34.0751 1 39 5.92487 39 12H41C41 4.8203 35.1797 -1 28 -1V1ZM12 -1C4.8203 -1 -1 4.8203 -1 12H1C1 5.92487 5.92487 1 12 1V-1Z" fill="black" fill-opacity="0.08"/>
</svg>
