<svg width="107" height="44" viewBox="0 0 107 44" fill="none" xmlns="http://www.w3.org/2000/svg">
<g clip-path="url(#clip0_98_363)">
<path d="M79.6482 42.9483V22.9364H85.3134V42.9483H89.202V1.2157H85.3134V19.6504H79.6482V1.2157H75.7597V42.9483H79.6482Z" fill="white"/>
<path d="M22.0241 42.9483V4.50173H28.0915V1.2157H18.1355V42.9483H22.0241Z" fill="white"/>
<path d="M63.9846 25.7554L70.5623 27.8625C70.7957 27.0176 70.9867 26.1518 71.114 25.286L64.2286 24.5766C64.1649 24.973 64.08 25.359 63.9846 25.7554ZM62.86 28.7388L68.8436 32.1394C69.2574 31.3571 69.6287 30.5539 69.9364 29.7298L63.3586 27.6226C63.1995 28.0086 63.0403 28.3737 62.86 28.7388ZM61.12 31.4197L66.2549 35.9782C66.8278 35.3002 67.3477 34.5908 67.8251 33.8502L61.8415 30.4495C61.6187 30.7833 61.3747 31.1067 61.12 31.4197ZM58.8709 33.6937L62.9342 39.2016C63.6238 38.6591 64.2922 38.0645 64.9182 37.4386L59.7727 32.8801C59.4862 33.1722 59.1785 33.4434 58.8709 33.6937ZM56.1761 35.4567L58.9982 41.6843C59.7939 41.2879 60.579 40.8497 61.311 40.3699L57.237 34.8516C56.8975 35.0707 56.5474 35.2689 56.1761 35.4567ZM54.3513 36.2703C53.9694 36.4059 53.5768 36.5311 53.1843 36.6354L54.6272 43.3116C55.4865 43.0925 56.3459 42.8213 57.1734 42.4979L54.3513 36.2703ZM40.7396 34.8516L36.6656 40.3699C37.4083 40.8497 38.1828 41.2983 38.9785 41.6843L41.8005 35.4567C41.4398 35.2689 41.0897 35.0707 40.7396 34.8516ZM38.204 32.8905L33.0585 37.4491C33.6844 38.075 34.3528 38.6696 35.0424 39.212L39.1058 33.7042C38.7981 33.4434 38.501 33.1722 38.204 32.8905ZM36.1352 30.4495L30.1515 33.8502C30.6289 34.5908 31.1594 35.3002 31.7323 35.9782L36.8672 31.4197C36.602 31.1067 36.358 30.7833 36.1352 30.4495ZM34.6286 27.633L28.0509 29.7402C28.3586 30.5539 28.7299 31.3675 29.1436 32.1499L35.1273 28.7492C34.9469 28.3737 34.7772 28.0086 34.6286 27.633ZM33.7481 24.5662L26.8626 25.2755C27.0006 26.1518 27.1809 27.0176 27.4143 27.8521L33.9921 25.7449C33.8966 25.359 33.8223 24.973 33.7481 24.5662ZM33.5359 21.395L26.6505 20.6857C26.6186 21.1342 26.608 21.5723 26.608 22C26.608 22.4277 26.6186 22.8763 26.6505 23.3144L33.5359 22.6051C33.5253 22.4069 33.5253 22.2087 33.5253 22C33.5253 21.7914 33.5359 21.5932 33.5359 21.395ZM34.0027 18.2447L27.4249 16.1375C27.1915 16.9825 27.0006 17.8483 26.8732 18.7141L33.7587 19.4235C33.8223 19.0271 33.8966 18.6307 34.0027 18.2447ZM35.1273 15.2613L29.1436 11.8606C28.7299 12.643 28.3586 13.4462 28.0509 14.2703L34.6286 16.3775C34.7772 15.9915 34.9469 15.6264 35.1273 15.2613ZM36.8566 12.5804L31.7217 8.02184C31.1594 8.69989 30.6289 9.40923 30.1409 10.1499L36.1246 13.5505C36.358 13.2167 36.602 12.8933 36.8566 12.5804ZM39.1164 10.2959L35.053 4.78808C34.3634 5.33052 33.695 5.92512 33.0691 6.551L38.2146 11.1096C38.501 10.8279 38.7981 10.5567 39.1164 10.2959ZM41.8005 8.53299L38.9785 2.30539C38.1828 2.70179 37.3977 3.13991 36.6656 3.63019L40.729 9.14844C41.0897 8.92938 41.4398 8.72075 41.8005 8.53299ZM43.6359 7.72976C44.0179 7.59415 44.4104 7.46898 44.803 7.36466L43.3601 0.688509C42.5007 0.90757 41.6414 1.18922 40.8139 1.50216L43.6359 7.72976ZM43.3601 43.3116L44.803 36.6354C44.4104 36.5311 44.0179 36.4059 43.6359 36.2703L40.8139 42.4979C41.6414 42.8213 42.5007 43.0925 43.3601 43.3116ZM46.7657 6.9474C47.1688 6.89524 47.572 6.85352 47.9857 6.82222V3.05176e-05C47.0946 0.0417565 46.2034 0.13564 45.3228 0.271249L46.7657 6.9474ZM45.3228 43.7184C46.1928 43.8644 47.0946 43.9479 47.9857 43.9896V37.157C47.572 37.1361 47.1688 37.0944 46.7657 37.0318L45.3228 43.7184ZM51.211 6.9474L52.6538 0.271249C51.7839 0.125208 50.8821 0.031325 49.9909 3.05176e-05V6.82222C50.4047 6.85352 50.8078 6.89524 51.211 6.9474ZM49.9909 44C50.8821 43.9583 51.7839 43.8644 52.6538 43.7288L51.211 37.0527C50.8078 37.1048 50.4047 37.1466 49.9909 37.1778V44ZM54.3513 7.72976L57.1734 1.50216C56.3459 1.17879 55.4865 0.90757 54.6272 0.688509L53.1843 7.36466C53.5768 7.46898 53.9588 7.59415 54.3513 7.72976ZM57.237 9.13801L61.311 3.63019C60.5684 3.15034 59.7939 2.70179 58.9982 2.30539L56.1761 8.53299C56.5368 8.72075 56.8975 8.92938 57.237 9.13801ZM59.7833 11.1096L64.9182 6.551C64.2922 5.92512 63.6238 5.33052 62.9342 4.78808L58.8709 10.2959C59.1785 10.5567 59.4862 10.8279 59.7833 11.1096ZM61.8521 13.5505L67.8357 10.1499C67.3583 9.40923 66.8278 8.69989 66.2656 8.02184L61.1307 12.5804C61.3747 12.8933 61.6187 13.2167 61.8521 13.5505ZM63.3586 16.367L69.9364 14.2599C69.6287 13.4462 69.2574 12.6326 68.8436 11.8502L62.8494 15.2509C63.0403 15.6264 63.1995 15.9915 63.3586 16.367ZM64.2286 19.4235L71.114 18.7141C70.9867 17.8379 70.7957 16.9721 70.5623 16.1375L63.9846 18.2447C64.08 18.6307 64.1649 19.0271 64.2286 19.4235ZM71.358 22C71.358 21.5723 71.3474 21.1238 71.3156 20.6857L64.4301 21.395C64.4408 21.5932 64.4408 21.7914 64.4408 22C64.4408 22.2087 64.4301 22.4069 64.4301 22.6051L71.3156 23.3144C71.3474 22.8659 71.358 22.4277 71.358 22Z" fill="white"/>
<path d="M3.88855 36.4748V8.01776C3.88855 5.2575 4.86069 3.8445 6.83849 3.8445C8.71573 3.8445 9.65434 5.32322 9.65434 8.24779V36.1134C9.65434 38.775 8.61516 40.0895 6.60384 40.0895C4.79365 40.0895 3.88855 38.8736 3.88855 36.4748ZM11.6657 41.7653C12.9395 40.7467 13.5429 39.2351 13.5429 37.2306V7.91918C13.5429 3.18729 11.2969 0.82135 6.77145 0.82135C4.42491 0.82135 2.68176 1.37998 1.60906 2.53009C0.536352 3.64734 0 5.4218 0 7.78774V36.4748C0 38.6436 0.603396 40.3195 1.77667 41.5024C2.94994 42.6854 4.62604 43.3098 6.77145 43.3098C8.78277 43.2769 10.4253 42.784 11.6657 41.7653Z" fill="white"/>
<path d="M97.6496 22.6406H99.5268C100.499 22.6406 101.27 22.8378 101.773 23.1993C102.276 23.5607 102.544 24.2508 102.544 25.2366V37.0335C102.544 38.0521 102.276 38.7094 101.773 39.0708C101.27 39.4323 100.499 39.6294 99.5268 39.6294H97.6496V22.6406ZM99.9291 42.9483C102.41 42.9483 104.119 42.4883 105.024 41.5682C105.963 40.6481 106.399 38.9722 106.399 36.6063V25.7295C106.399 23.3307 105.93 21.6877 105.024 20.7676C104.086 19.8475 102.41 19.3875 99.9291 19.3875H97.6161V1.2157H93.7275V42.9483H99.9291Z" fill="white"/>
</g>
<defs>
<clipPath id="clip0_98_363">
<rect width="106.432" height="44" fill="white"/>
</clipPath>
</defs>
</svg>
