<svg width="330" height="103" viewBox="0 0 330 103" fill="none" xmlns="http://www.w3.org/2000/svg">
<g clip-path="url(#clip0_98_60)">
<path d="M52 -10L329.915 -9.91985C330.105 -10.1102 329.915 79.325 329.915 79.325C320.29 75.9886 309.007 70.4731 301.524 62.9488C297.304 58.7107 290.967 57.4383 285.458 59.7377C279.953 62.0321 276.356 67.4323 276.356 73.4337C276.356 76.8503 276.356 80.3519 276.356 83.8586C276.356 91.6033 271.718 98.5816 264.604 101.542C257.495 104.508 249.305 102.87 243.859 97.3943C222.786 76.204 195.531 48.7969 174.966 28.1075C169.924 23.0429 162.352 21.53 155.766 24.2752C149.185 27.0154 144.891 33.4727 144.891 40.6363C144.891 47.8 140.602 54.2573 134.021 56.9975C127.435 59.7377 119.862 58.2298 114.821 53.1652L52 -10Z" fill="url(#paint0_linear_98_60)"/>
<path d="M221 93C229.284 93 236 86.2843 236 78C236 69.7157 229.284 63 221 63C212.716 63 206 69.7157 206 78C206 86.2843 212.716 93 221 93Z" fill="url(#paint1_linear_98_60)"/>
<path d="M-10.2263 -21.9125C-10.2263 -26.5428 -8.39143 -31.1601 -4.75214 -34.5817C2.24384 -41.1642 13.2487 -40.8294 19.8316 -33.8339L79.2738 24.6924C85.8567 31.6878 85.5219 42.6918 78.5259 49.2743C71.5299 55.8567 60.5251 55.5219 53.9421 48.5265L-5.5 -9.99982C-8.66102 -13.3562 -10.2263 -17.6387 -10.2263 -21.9125Z" fill="url(#paint2_linear_98_60)"/>
<path d="M174.405 -10.993C174.405 -14.8797 175.939 -18.7555 178.981 -21.6277C184.828 -27.1531 194.026 -26.8721 199.528 -21L247.05 29.3986C252.552 35.2707 252.272 44.5076 246.425 50.033C240.577 55.5584 231.379 55.2774 225.877 49.4053L178.356 -0.993268C175.714 -3.81071 174.405 -7.4055 174.405 -10.993Z" fill="url(#paint3_linear_98_60)"/>
</g>
<defs>
<linearGradient id="paint0_linear_98_60" x1="271.66" y1="40.4891" x2="265.623" y2="9.10031" gradientUnits="userSpaceOnUse">
<stop stop-color="#FFCD00"/>
<stop offset="1" stop-color="#E9510E"/>
</linearGradient>
<linearGradient id="paint1_linear_98_60" x1="235.136" y1="78.0009" x2="208.534" y2="78.0009" gradientUnits="userSpaceOnUse">
<stop stop-color="#E73585"/>
<stop offset="1" stop-color="#FFCD00"/>
</linearGradient>
<linearGradient id="paint2_linear_98_60" x1="-0.910959" y1="-124.291" x2="-0.910967" y2="53.9995" gradientUnits="userSpaceOnUse">
<stop offset="0.46875" stop-color="#E73585"/>
<stop offset="1" stop-color="#FFCD01"/>
</linearGradient>
<linearGradient id="paint3_linear_98_60" x1="180.03" y1="-95.6603" x2="180.03" y2="53.9995" gradientUnits="userSpaceOnUse">
<stop stop-color="#FFCD01"/>
<stop offset="1" stop-color="#E73585"/>
</linearGradient>
<clipPath id="clip0_98_60">
<rect width="330" height="103" fill="white"/>
</clipPath>
</defs>
</svg>
