<svg width="40" height="40" viewBox="0 0 40 40" fill="none" xmlns="http://www.w3.org/2000/svg">
<path d="M0 12C0 5.37258 5.37258 0 12 0H28C34.6274 0 40 5.37258 40 12V28C40 34.6274 34.6274 40 28 40H12C5.37258 40 0 34.6274 0 28V12Z" fill="black"/>
<path fill-rule="evenodd" clip-rule="evenodd" d="M16.9864 21.5539C18.1673 21.2875 19.4507 21.4912 20.4795 22.1344C21.6008 22.8073 22.391 23.9843 22.6296 25.2666C22.8244 26.364 22.6425 27.537 22.064 28.4962C21.389 29.6722 20.1693 30.5092 18.8363 30.7378C17.4218 30.9923 15.893 30.5609 14.8492 29.5648C13.723 28.5559 13.1673 26.9714 13.382 25.4783C13.6186 23.5906 15.1256 21.9505 16.9864 21.5539ZM17.2876 23.6443C16.0152 23.9942 15.1643 25.4217 15.5013 26.7059C15.7608 27.9605 17.063 28.876 18.3323 28.6931C19.726 28.5619 20.8224 27.1434 20.5838 25.7596C20.4129 24.2487 18.7369 23.1572 17.2876 23.6443Z" fill="white"/>
<path fill-rule="evenodd" clip-rule="evenodd" d="M6.67654 9.19043C7.98665 9.20963 9.2978 9.18335 10.6079 9.20255C12.194 9.26826 13.6325 10.4854 13.9721 12.033C14.2249 13.1036 13.9641 14.2843 13.2756 15.1425C12.6378 15.9533 11.6471 16.4759 10.615 16.5335C9.98621 16.5639 9.35643 16.5345 8.72664 16.5487C8.71653 17.0369 8.8247 17.6182 8.44359 18.0024C7.98869 18.4856 7.27297 18.2723 6.68869 18.3178C6.64622 17.6232 6.67353 16.9258 6.66645 16.2303C6.67353 13.884 6.6523 11.5367 6.67654 9.19043ZM8.72561 14.4824C9.29172 14.4885 9.85884 14.4905 10.426 14.4865C11.0406 14.4875 11.6249 14.0902 11.8715 13.5312C12.2981 12.6679 11.7472 11.5185 10.8121 11.3012C10.1277 11.1839 9.42718 11.288 8.73573 11.2405C8.71553 12.3211 8.73372 13.4018 8.72561 14.4824Z" fill="white"/>
<path fill-rule="evenodd" clip-rule="evenodd" d="M14.985 10.2538C14.9557 9.74327 15.3722 9.24997 15.8847 9.2075C16.2668 9.17415 16.652 9.19942 17.0361 9.19438C17.0442 11.0857 17.0371 12.9771 17.0391 14.8675C18.3937 13.058 19.8181 11.3011 21.1878 9.50168C21.297 9.39754 21.3688 9.19842 21.5437 9.19942C22.1593 9.18326 22.777 9.20042 23.3936 9.19538C23.3804 11.9066 23.3966 14.6178 23.3855 17.328C23.3926 17.8304 22.9498 18.2813 22.4535 18.3065C22.0784 18.3257 21.7024 18.3096 21.3263 18.3126C21.3445 16.4364 21.3668 14.5572 21.3152 12.6819C19.8767 14.5723 18.3947 16.4283 16.9482 18.3116C16.2931 18.3156 15.639 18.3126 14.984 18.3126C14.987 15.6267 14.986 12.9397 14.985 10.2538Z" fill="white"/>
<path fill-rule="evenodd" clip-rule="evenodd" d="M24.8089 9.19853C26.6831 9.18945 28.5562 9.19956 30.4294 9.19249C31.2118 9.17429 31.9892 9.52102 32.5098 10.1033C33.2235 10.8544 33.4287 12.022 33.0577 12.9833C32.9657 13.2654 32.7443 13.4888 32.6625 13.7718C32.989 14.2985 33.27 14.8818 33.2387 15.5207C33.2791 16.948 32.0438 18.242 30.6235 18.3026C29.0415 18.3279 27.4584 18.3077 25.8764 18.3147C25.3356 18.3451 24.824 17.8871 24.8159 17.3423C24.8058 14.6281 24.819 11.9128 24.8089 9.19853ZM26.8681 11.2476C26.8741 11.7409 26.8741 12.2343 26.8691 12.7276C28.0922 12.7266 29.3164 12.7276 30.5396 12.7053C30.8348 12.6962 31.0633 12.4435 31.1633 12.1827C31.2917 11.7349 30.9116 11.2203 30.4375 11.2496C29.2477 11.2446 28.0579 11.2476 26.8681 11.2476ZM26.8691 14.7817C26.8721 15.273 26.8731 15.7643 26.8711 16.2546C28.0568 16.2687 29.2426 16.2596 30.4284 16.2515C30.758 16.2738 31.0592 16.024 31.1522 15.7168C31.3069 15.2659 30.9055 14.7403 30.4294 14.7766C29.2426 14.7645 28.0558 14.7918 26.8691 14.7817Z" fill="white"/>
<path fill-rule="evenodd" clip-rule="evenodd" d="M6.66424 21.6438C8.92368 21.6388 11.1832 21.6408 13.4436 21.6428C13.3641 22.2124 13.6166 22.9182 13.1464 23.3665C12.9277 23.607 12.5917 23.6776 12.2786 23.6607C11.0937 23.6478 9.90877 23.6756 8.72489 23.6448C8.65628 24.1518 8.70201 24.6627 8.68911 25.1717C8.69804 26.5981 8.68015 28.0246 8.69903 29.45C8.70103 29.7671 8.6374 30.1131 8.37994 30.3258C7.92071 30.7691 7.23382 30.5633 6.66424 30.6041C6.67218 27.618 6.67317 24.6299 6.66424 21.6438Z" fill="white"/>
<path fill-rule="evenodd" clip-rule="evenodd" d="M23.6058 21.6369C24.2837 21.6479 24.9617 21.6369 25.6396 21.6449C25.6326 23.962 25.6217 26.2791 25.6446 28.5962C26.2509 28.5813 26.8563 28.5973 27.4627 28.5833C27.4587 26.2712 27.4647 23.958 27.4587 21.6459C28.1376 21.6409 28.8176 21.633 29.4965 21.6509C29.4726 23.962 29.4945 26.2732 29.4846 28.5833C30.0949 28.5952 30.7043 28.5883 31.3146 28.5893C31.3206 26.2742 31.3245 23.959 31.3126 21.6439C31.727 21.6539 32.1466 21.6061 32.5591 21.6737C33.0164 21.7712 33.3593 22.2195 33.3345 22.6877C33.3355 25.3278 33.3355 27.97 33.3355 30.6112C30.4548 30.6062 27.574 30.6082 24.6943 30.6092C24.3633 30.6221 24.0283 30.4879 23.8245 30.2225C23.5929 29.9561 23.6078 29.5803 23.5968 29.2503C23.6058 26.7125 23.5909 24.1747 23.6058 21.6369Z" fill="white"/>
<path d="M12 1.12H28V-1.12H12V1.12ZM38.88 12V28H41.12V12H38.88ZM28 38.88H12V41.12H28V38.88ZM1.12 28V12H-1.12V28H1.12ZM12 38.88C5.99114 38.88 1.12 34.0089 1.12 28H-1.12C-1.12 35.246 4.75402 41.12 12 41.12V38.88ZM38.88 28C38.88 34.0089 34.0089 38.88 28 38.88V41.12C35.246 41.12 41.12 35.246 41.12 28H38.88ZM28 1.12C34.0089 1.12 38.88 5.99114 38.88 12H41.12C41.12 4.75402 35.246 -1.12 28 -1.12V1.12ZM12 -1.12C4.75402 -1.12 -1.12 4.75402 -1.12 12H1.12C1.12 5.99114 5.99114 1.12 12 1.12V-1.12Z" fill="black" fill-opacity="0.08"/>
</svg>
